<svg width="206" height="96" viewBox="0 0 206 96" fill="none" xmlns="http://www.w3.org/2000/svg">
<path d="M202.374 73.8475C201.251 73.8137 199.793 73.7024 198.693 73.6011C198.349 73.5694 198.527 73.5185 198.289 73.494C197.829 73.4464 197.375 73.4526 196.911 73.401C196.756 73.3835 196.954 73.2981 196.792 73.282C195.903 73.1946 195.062 73.1774 194.168 73.1141C189.771 72.8027 185.408 72.5876 180.939 72.3978C179.486 72.3358 177.66 72.1948 176.143 72.1926C175.965 72.1924 176.068 72.279 176.034 72.285C175.501 72.3767 175.682 72.2123 175.337 72.181C173.977 72.0575 172.428 72.0148 171.104 72.0211C170.54 72.0241 171.102 72.2013 170.536 72.0971C170.497 72.09 170.642 72.0038 170.488 71.9914C170.138 71.9634 169.474 71.9674 169.203 71.9558C168.682 71.9329 168.596 71.9324 168.103 71.9236C167.423 71.9108 166.615 71.8552 165.887 71.8664C165.731 71.869 165.936 71.9627 165.688 71.9752C165.44 71.9876 164.785 71.9724 164.565 71.9487C164.345 71.9249 164.439 71.8542 164.401 71.8374C164.081 71.6954 163.323 71.8804 163.226 71.8845C161.456 71.9503 159.917 71.8337 158.255 71.8319C156.994 71.8308 155.634 71.8693 154.428 71.87C152.99 71.8706 151.781 71.8307 150.383 71.8542C150.236 71.8566 150.41 71.9619 150.229 71.9651C148.315 71.9988 146.425 72.0167 144.52 71.9826C144.329 71.9791 144.574 71.88 144.383 71.8709C143.214 71.8166 141.363 71.6753 140.681 72.1036C139.891 72.1082 138.931 72.1189 138.222 72.0577C137.764 72.0184 138.204 71.9024 137.646 71.9633C137.52 71.977 137.686 72.0616 137.497 72.0753C136.701 72.1331 135.829 72.1328 135.042 72.207C134.882 72.2223 134.928 72.3011 134.883 72.3172C134.505 72.4479 133.864 72.2774 133.724 72.2686C132.666 72.203 131.897 72.2749 130.914 72.3132C130.685 72.3221 130.96 72.4188 130.74 72.4312C129.602 72.4945 128.421 72.538 127.307 72.5428C127.059 72.5437 127.282 72.4409 127.164 72.4366C126.64 72.4189 126.532 72.5982 126.029 72.5853C125.923 72.5829 125.979 72.5012 125.959 72.4935C125.651 72.3728 125.399 72.5782 125.321 72.5864C124.343 72.694 123.702 72.5265 122.758 72.6062C122.645 72.616 122.905 72.7017 122.588 72.723C120.476 72.8659 118.212 72.9736 116.118 73.0288C115.792 73.0376 116.02 72.9479 115.999 72.94C115.655 72.8176 115.451 73.0247 115.345 73.039C114.51 73.1463 113.713 73.0378 113.157 73.3068C109.599 73.4716 106.063 73.8722 102.531 73.9606C102.486 73.962 102.558 73.8604 102.469 73.8635C101.385 73.9009 101.604 74.0311 100.904 74.2725C100.727 74.3332 100.162 74.1629 100.114 74.151C99.934 74.1074 100.103 73.9505 100.044 73.9442C99.5517 73.897 99.6707 74.3566 99.0164 74.4144C98.9959 74.4154 99.0744 74.3219 99.0188 74.3182C98.8458 74.3065 98.6793 74.3556 98.5095 74.3409C98.1207 74.3066 97.9644 74.092 97.3898 74.2768C97.317 74.3006 97.454 74.5548 96.8656 74.5957C96.6313 74.6116 95.5929 74.7115 95.2993 74.7217C95.0063 74.7317 95.1986 74.6279 95.1775 74.6261C94.3821 74.5866 94.6723 74.5125 94.2688 74.382C93.8651 74.2524 94.0094 74.6388 93.8551 74.698C93.7007 74.7571 93.1226 74.7183 92.9794 74.6994C92.8363 74.6805 93.0059 74.6096 92.8797 74.6033C92.0421 74.5631 92.5355 74.8349 92.2691 74.924C91.6408 75.1351 91.1111 74.8902 90.5172 74.9196C90.3565 74.9276 90.4936 74.9817 90.3517 75.002C89.7897 75.0818 89.4407 75.0239 88.8044 75.1728C88.6976 75.1974 88.203 75.4257 87.8578 75.3299C87.8088 75.316 87.9353 75.2291 87.6957 75.237C87.3378 75.2485 86.6942 75.2984 86.3128 75.3626C86.0312 75.4101 86.3684 75.497 86.0077 75.4965C85.8474 75.4963 86.1343 75.3952 85.8335 75.4006C85.5345 75.4058 84.7749 75.4884 84.4851 75.5215C84.1961 75.5545 84.3639 75.6293 84.3412 75.638C84.2034 75.6881 83.652 75.7912 83.6027 75.7964C81.1263 76.0713 78.8716 76.164 76.4475 76.491C76.2578 76.5165 76.3952 76.5984 76.3664 76.6033C75.7321 76.7165 76.2071 76.4028 75.7513 76.3679C75.8377 76.5562 75.5706 76.5508 75.1221 76.624C74.9059 76.6595 75.0329 76.7216 75.0139 76.7316C74.7046 76.8837 74.4629 76.7612 74.4014 76.7375C74.1748 76.6504 73.9567 76.8095 73.8023 76.7518C73.6481 76.6946 73.9712 76.5456 73.5367 76.5975C73.4228 76.6817 73.7665 76.8271 73.4398 76.8952C72.2137 77.151 69.831 77.2886 68.8524 77.3921C67.8573 77.4971 67.5358 77.5495 66.9508 77.5953C65.8923 77.6784 66.2945 77.7668 65.6465 77.9096C64.9955 78.0529 65.2749 77.6798 65.1716 77.6197C65.0698 77.5595 64.9771 77.6459 64.8565 77.6209C64.7362 77.5958 64.9803 77.516 64.7068 77.5349C64.4334 77.5537 63.7037 77.7741 63.616 77.8612C63.4336 78.0453 63.7844 78.1707 63.0708 78.2005C63.0298 78.2021 63.1508 78.0979 62.9941 78.1085C61.7498 78.196 60.4564 78.3557 59.1971 78.4566C59.0239 78.4703 59.1655 78.353 59.0645 78.3599C58.0118 78.4318 58.4059 78.5483 57.8551 78.8051C57.9541 78.5452 57.6135 78.4379 56.822 78.5392C56.3535 78.5991 56.4476 78.6948 56.1538 78.8092C56.0657 78.8436 55.7239 78.8141 55.6699 78.8719C55.492 79.0612 55.8297 79.2026 55.0125 79.2358C54.9766 79.237 55.078 79.1328 54.9547 79.1435C54.1571 79.2123 54.0844 79.3954 53.2257 79.5301C52.5527 79.6356 51.3319 79.6923 50.5518 79.7798C50.5286 79.5049 49.8148 79.6644 49.5502 79.8918C49.0561 79.9505 48.5235 80.0334 48.0406 80.0724C47.8745 80.0859 47.9723 79.9921 47.9503 79.9864C47.6133 79.8957 47.4216 80.1083 47.3153 80.1301C46.1611 80.3583 45.1883 80.3502 44.0829 80.6409C44.0437 80.6513 44.0049 80.8498 43.6852 80.7529C43.6644 80.746 44.0246 80.6084 43.494 80.6749C42.9673 80.7409 41.9851 80.7736 41.273 80.9625C41.1012 81.008 40.6801 81.2236 40.3074 81.1532C40.2577 81.1436 40.3021 81.0819 40.2294 81.0612C39.9946 80.9958 39.9002 81.2044 39.6168 81.0782C39.3335 80.952 38.7736 80.9063 38.052 81.1226C38.0289 81.1292 37.8756 81.3057 37.6431 81.3361C37.2718 81.3845 36.74 81.4276 36.351 81.4838C36.1647 81.5108 36.2972 81.5881 36.2651 81.5944C35.0488 81.8211 34.1688 81.8609 32.8415 82.0142C32.5984 82.042 31.9191 82.2709 31.4327 82.2373C30.8983 82.2009 31.3668 81.6609 30.1876 81.9439C29.7166 82.057 29.1659 82.736 28.2827 82.554C26.648 82.8688 25.0898 82.9381 23.4244 83.2934C23.3495 83.3093 23.1341 83.5083 22.9557 83.5324C22.6907 83.5678 22.5343 83.5127 22.3443 83.5356C21.5426 83.6305 20.8411 83.8014 20.0931 83.9021C19.8083 83.9406 19.8962 83.8467 19.5561 83.8927C19.2161 83.9389 19.0048 84.0768 18.5359 84.0953C18.1815 84.1089 17.801 83.948 17.3324 83.9927C17.3456 84.2054 17.026 84.2487 16.4648 84.3894C16.3569 84.4166 16.4851 84.4721 16.4346 84.4887C16.2294 84.558 16.0251 84.5267 15.8306 84.5978C15.7832 84.6149 15.7915 84.687 15.7535 84.7051C15.4299 84.8616 14.8453 84.7845 14.7447 84.7709C14.3593 84.7197 14.2001 84.839 13.9097 84.8398C13.6195 84.8405 14.0363 84.7241 13.7008 84.7486C13.0149 84.7979 12.1637 84.9382 11.478 85.0386C11.2052 85.0789 11.4056 85.1465 11.3668 85.1545C10.8066 85.2641 10.2188 85.2491 9.93285 85.4874C9.46552 85.0541 9.59858 85.587 8.77018 85.6119C8.70483 85.6137 8.58828 85.393 8.82936 85.3213C9.07035 85.2497 9.454 85.266 9.78624 85.161C9.86502 85.1363 10.2934 84.8479 10.3541 84.8252C10.8307 84.6472 10.952 84.9852 10.9809 85.0003C11.3066 85.1622 11.8314 84.8422 11.9762 84.8037C12.6418 84.6269 13.2064 84.5919 13.777 84.4516C14.1492 84.3604 14.152 84.1266 14.4488 84.0892C15.4342 83.9647 15.8225 84.232 16.7003 83.8183C16.8882 83.73 16.6565 83.5096 17.3893 83.6006C17.4354 83.6063 17.9837 83.7079 18.2676 83.5495C18.3032 83.5296 18.2913 83.4571 18.3402 83.4435C18.668 83.3543 18.8988 83.3791 19.257 83.2974C19.6152 83.2158 20.0438 83.1098 20.459 83.0734C20.7093 83.0513 21.0469 83.1397 21.1701 83.1554C21.5255 83.2004 21.8734 82.9888 22.1024 83.0732C22.3338 83.1578 21.9406 83.3964 22.5135 83.3885C22.5068 83.1965 22.5263 82.9954 22.532 82.8004C23.7636 82.6254 24.9747 82.5098 26.1909 82.3233C26.3417 82.3 26.1727 82.221 26.3339 82.1934C27.0137 82.0775 27.6178 82.0634 28.3159 81.9324C28.8463 81.832 29.4601 81.6331 30.0334 81.5225C30.4196 81.6874 31.2695 81.4896 31.8941 81.4199C32.113 81.3954 32.1066 81.4553 32.264 81.4519C32.8574 81.4378 32.5568 81.2859 32.7124 81.2328C33.3793 81.0061 33.4993 81.4305 34.3016 81.3049C34.3442 81.2983 34.8313 80.9935 34.9007 80.9689C35.3415 80.8106 34.9872 81.0385 35.2735 81.0151C35.7957 80.9726 36.1617 80.9767 36.7778 80.8205C36.9564 80.7748 37.3709 80.5694 37.7372 80.6312C37.7854 80.6392 37.7705 80.7191 37.8082 80.7183C38.4905 80.698 38.4743 80.4559 38.846 80.3209C39.2176 80.1858 39.8298 80.2687 39.956 80.2996C40.2864 80.3791 39.7232 80.386 39.7078 80.4005C39.5281 80.5726 39.9546 80.4874 40.2837 80.4538C40.3637 80.6822 40.8193 80.6041 40.6247 80.418C40.6027 80.3978 40.351 80.4553 40.2837 80.4538C40.5395 80.183 41.0384 80.0831 41.6212 80.2216C41.8938 80.2866 41.6661 80.4383 42.4449 80.2862C42.7979 80.2174 42.6384 80.0746 42.946 79.987C43.6531 79.7864 44.6364 79.8047 45.3823 79.6782C45.654 79.6321 45.3762 79.5799 45.5614 79.5454C46.0527 79.4536 46.4967 79.4607 46.9861 79.3593C47.0304 79.35 46.9086 79.2721 47.0621 79.25C48.2274 79.0804 49.2309 79.0052 50.4491 78.8435C51.045 78.7643 52.0983 78.5716 52.7107 78.501C53.7735 78.3775 55.0859 78.3423 55.9757 78.1929C56.5561 78.0959 56.4161 78.0198 56.6575 77.924C57.1238 77.7386 58.0301 77.8449 58.1492 77.8642C58.153 77.8648 57.6445 77.9527 57.9234 77.9652C58.0946 78.0441 58.1435 77.8654 58.1492 77.8642C58.2292 77.8761 59.2502 77.7663 59.449 77.7229C59.5574 77.6992 59.485 77.619 59.5417 77.6083C60.8902 77.3558 62.2331 77.1633 63.6013 77.0344C63.626 77.0331 63.6012 77.1362 63.6591 77.132C64.4686 77.0755 64.9666 76.8915 65.617 76.7387C66.267 76.5861 66.7902 76.5465 67.1983 76.6683C67.6902 76.5867 68.4059 76.5759 68.8169 76.5725C69.2278 76.569 69.2615 76.3704 69.2967 76.3623C70.3887 76.1083 71.0766 76.1378 72.2423 76.018C72.799 75.9611 73.8932 75.8054 74.487 75.7157C74.9566 75.6444 75.2451 75.6569 75.6747 75.5786C75.7328 75.5681 75.6641 75.4894 75.6816 75.484C76.153 75.3266 75.9443 75.5621 76.0482 75.5881C76.424 75.6827 76.6654 75.7284 77.2856 75.5938C77.429 75.5628 77.8176 75.2144 78.0792 75.1674C78.4194 75.1067 78.302 75.229 78.6574 75.1629C78.6878 75.1574 78.6743 75.0915 78.8955 75.0699C79.9224 74.9687 81.0389 74.8855 82.093 74.7651C82.237 74.7489 82.0411 74.6632 82.249 74.6381C83.2383 74.5189 84.3287 74.4072 85.294 74.3565C85.5318 74.3443 85.3911 74.4337 85.4447 74.4503C85.7735 74.5503 86.1998 74.3111 86.273 74.2998C88.0111 74.0267 89.3833 74.065 91.1733 73.8057C91.2707 73.7912 92.0027 73.5109 92.354 73.6564C92.378 73.666 92.7261 73.8159 93.0066 73.6637C93.024 73.6542 92.8094 73.5803 93.1695 73.5555C93.5307 73.5307 94.0978 73.4139 94.6057 73.4701C94.7669 73.4877 95.1573 73.6341 95.615 73.446C95.6448 73.433 96.3419 73.0392 96.6207 73.2413C96.6659 73.2747 96.6436 73.5172 97.1925 73.3441C97.2974 73.3107 97.0985 73.275 97.3773 73.2163C97.8043 73.1262 98.3807 73.1391 98.9 72.9861C98.9905 72.9591 99.3689 72.7625 99.6936 72.8582C99.7444 72.8731 99.6577 72.961 99.8244 72.9555C100.614 72.9298 101.454 72.8043 102.264 72.7919C102.552 72.7874 102.416 72.9285 102.717 72.9382C103.018 72.9479 103.62 72.9317 103.926 72.8475C104.232 72.7632 103.876 72.5853 104.34 72.531C106.346 72.2965 108.393 72.2603 110.411 72.1314C110.711 72.1124 110.458 72.0567 110.899 72.0235C112.526 71.8996 115.359 71.6394 116.778 71.7079C117.918 71.7619 116.499 71.9469 117.367 71.9436C117.788 71.9417 118.229 71.6746 118.33 71.6609C119.316 71.524 120.01 71.5895 120.897 71.506C121.081 71.4888 120.895 71.4021 121.051 71.3885C121.584 71.3413 122.147 71.3534 122.656 71.3177C122.884 71.3015 122.838 71.2297 123.049 71.2241C123.555 71.2097 124.004 71.2173 124.499 71.2613C124.544 71.2653 124.247 71.3731 124.62 71.3573C125.225 71.3314 125.978 71.3624 126.669 71.2582C126.875 71.227 126.875 71.0571 127.323 71.1531C127.417 71.1732 127.308 71.382 127.816 71.1822C127.901 71.1488 128.756 70.872 129.19 71.0061C129.304 71.0413 129.598 71.1952 129.845 71.1583C129.879 71.1526 129.74 71.0675 129.945 71.0497C130.669 70.9887 131.429 70.9669 132.172 70.909C132.37 70.8933 132.071 70.8108 132.367 70.7905C133.18 70.7346 134.197 70.7207 134.996 70.7223C135.29 70.7231 135.089 70.8082 135.111 70.816C135.459 70.9421 135.656 70.7487 135.77 70.734C136.478 70.6448 137.021 70.715 137.674 70.6716C137.855 70.6598 137.724 70.5749 137.76 70.5658C138.13 70.4769 137.857 70.6451 138.094 70.6555C138.756 70.6854 139.493 70.6571 140.16 70.6278C140.406 70.6169 140.127 70.5212 140.347 70.5126C141.65 70.46 143.006 70.4381 144.281 70.4689C144.521 70.475 144.372 70.5574 144.422 70.5746C144.769 70.6944 145.271 70.5117 145.387 70.4931C145.913 70.408 146.119 70.4747 146.584 70.4537C148.857 70.3493 151.676 70.3653 153.821 70.3829C156.631 70.4052 158.789 70.4822 161.47 70.4778C161.64 70.4777 161.469 70.371 161.616 70.3695C163.509 70.3558 165.355 70.4162 167.258 70.413C167.414 70.4129 167.191 70.3095 167.442 70.306C167.958 70.2983 168.602 70.3139 169.116 70.3546C169.367 70.3743 169.028 70.4545 169.281 70.4726C169.869 70.5149 170.501 70.5337 171.109 70.5297C171.368 70.5277 170.98 70.4176 171.316 70.4231C173.617 70.459 175.843 70.4963 178.159 70.6963C178.318 70.71 178.451 70.9222 178.79 70.8924C178.818 70.8354 178.818 70.7674 178.831 70.706C182.148 70.7721 185.47 70.965 188.781 71.1152C188.921 71.1216 188.683 71.0011 188.956 71.0129C190.531 71.0811 192.083 71.1201 193.672 71.3052C193.83 71.3235 193.739 71.5134 194.21 71.5066C194.293 71.5051 195.003 71.5136 195.189 71.4806C195.214 71.4755 195.089 71.3786 195.318 71.3873C196.646 71.4387 198.066 71.5323 199.367 71.6572C199.579 71.6777 199.348 71.7619 199.499 71.7773C200.571 71.8859 201.751 71.8775 202.784 72.0238C203.476 72.1222 203.209 72.2741 203.569 72.4592C203.62 72.4853 204.052 72.5139 204.069 72.6105C204.112 72.8536 203.887 73.104 203.957 73.3646C203.972 73.4206 204.555 73.395 204.204 73.5081C204.179 73.5156 203.757 73.5354 203.652 73.5747C203.578 73.6017 203.702 73.7061 203.553 73.7376C203.404 73.7691 203.248 73.6786 203.003 73.7117C202.758 73.7455 202.858 73.8618 202.374 73.8475ZM70.6777 76.5554C71.0701 76.6022 71.087 76.258 70.6836 76.3878C70.6641 76.3945 70.6575 76.5532 70.6777 76.5554ZM25.0018 82.7651C25.5162 82.8411 25.8208 82.5738 25.4573 82.5101C25.0935 82.4465 24.8449 82.7422 25.0018 82.7651ZM19.8954 83.6299C20.4825 83.6621 20.5023 83.1722 19.906 83.3592C19.8713 83.3699 19.861 83.6281 19.8954 83.6299ZM201.855 72.4089C201.86 72.4137 202.168 72.4354 202.175 72.4313C202.346 72.3328 201.729 72.2895 201.855 72.4089ZM14.8415 84.5056C15.0328 84.5428 15.5435 84.39 15.3065 84.3437C15.1158 84.3064 14.6035 84.4594 14.8415 84.5056ZM90.4853 74.7561C90.4918 74.7606 90.7127 74.7434 90.7055 74.7153C90.6817 74.625 90.3773 74.6812 90.4853 74.7561ZM6.22019 85.8171C7.51099 85.6385 8.34561 85.9141 6.94141 86.0826C6.68676 86.1132 7.46861 85.8739 7.14082 85.8875C6.54095 85.9129 6.18532 86.2199 5.55982 86.18C5.44662 86.1725 6.14667 85.8264 6.2224 85.8162C6.22168 85.8165 6.22089 85.8168 6.22019 85.8171ZM70.9448 76.9346C70.953 76.9382 71.2593 76.9061 71.2661 76.9009C71.4193 76.7741 70.8021 76.8385 70.9448 76.9346ZM103.339 73.8002C103.357 73.8083 104.064 73.7592 104.086 73.7487C104.441 73.5426 103.011 73.6411 103.339 73.8002ZM50.5387 79.7742C50.213 79.9273 49.8324 79.9914 49.5517 79.8917C49.8795 79.8549 50.1988 79.813 50.5387 79.7742Z" fill="#FF5722"/>
<path d="M10.3521 74.903C10.1491 74.8015 9.84464 74.7253 9.43867 74.6746C9.08345 74.6746 8.55063 74.6746 7.84019 74.6746C7.63721 74.5731 7.40885 74.4209 7.15512 74.2179C6.9014 74.0149 6.59692 73.6851 6.2417 73.2284C6.34319 72.4672 6.44469 71.7314 6.54618 71.0209C6.69841 70.2597 6.87602 69.5493 7.07901 68.8896C7.48497 67.6717 7.78944 66.4285 7.99243 65.1598C8.24615 63.8912 8.52525 62.6225 8.82973 61.3539L10.5804 57.7763C10.8342 56.5077 11.164 55.2898 11.57 54.1227C12.0267 52.9048 12.458 51.7122 12.864 50.5451C13.27 49.4287 13.6506 48.3884 14.0058 47.4242C14.4117 46.4093 14.7923 45.4705 15.1475 44.6079C15.4013 44.1004 15.7311 43.3138 16.1371 42.2482C16.5431 41.1318 16.949 39.9646 17.355 38.7467C17.8117 37.5289 18.243 36.5393 18.649 35.7781C18.7505 35.5244 18.852 35.3214 18.9535 35.1692C19.055 34.9662 19.1311 34.6871 19.1818 34.3319C18.5221 34.3826 17.8371 34.2811 17.1266 34.0274C16.4162 33.7737 15.9849 33.4692 15.8326 33.114C15.8326 33.0632 15.7819 32.8095 15.6804 32.3528C15.6296 31.8961 15.5535 31.4394 15.452 30.9827C15.4013 30.526 15.3759 30.323 15.3759 30.3737C15.6804 30.12 16.2132 29.917 16.9744 29.7648C17.7863 29.6125 18.2938 29.5111 18.4968 29.4603C19.3594 29.0543 19.9937 28.8006 20.3997 28.6991C20.8057 28.5469 21.5922 28.3439 22.7594 28.0902C23.0131 28.0394 23.6982 27.8872 24.8146 27.6335C25.931 27.3797 27.1742 27.1006 28.5444 26.7962C29.9653 26.4917 31.2339 26.238 32.3503 26.035C33.4667 25.7813 34.1771 25.6544 34.4816 25.6544C34.9891 25.6036 35.4711 25.5783 35.9279 25.5783C36.4353 25.5783 36.9428 25.4768 37.4502 25.2738C37.5517 25.1723 37.8562 25.1469 38.3636 25.1977C38.8711 25.1977 39.4547 25.1977 40.1144 25.1977C40.7741 25.1469 41.3069 25.0454 41.7128 24.8932C42.1696 24.741 42.677 24.6902 43.2352 24.741C43.8442 24.741 44.4024 24.6395 44.9098 24.4365C45.1635 24.2843 45.4426 24.2335 45.7471 24.2843C46.1023 24.335 46.4829 24.3604 46.8889 24.3604C47.5486 24.7156 48.0307 25.0708 48.3351 25.426C48.6904 25.7305 48.9695 26.1619 49.1724 26.7201V28.1663C48.7665 28.42 48.2844 28.7499 47.7262 29.1558C47.168 29.5618 46.6859 29.8155 46.2799 29.917C46.0262 29.9678 45.7471 30.0439 45.4426 30.1454C45.1889 30.2469 44.8844 30.3991 44.5292 30.6021C43.971 30.9066 43.4636 31.0842 43.0069 31.1349C42.6009 31.1857 42.1696 31.1095 41.7128 30.9066C41.5099 30.7543 41.2815 30.6782 41.0278 30.6782C40.8248 30.6782 40.5964 30.6528 40.3427 30.6021C40.2412 30.2976 40.1144 30.0693 39.9621 29.917C39.8606 29.714 39.7591 29.5618 39.6577 29.4603C39.5562 29.3081 39.4039 29.1812 39.2009 29.0797C38.4398 29.4349 37.6532 29.5618 36.8413 29.4603C36.0293 29.3081 35.2428 29.4096 34.4816 29.7648C33.7204 29.8155 32.9592 29.8916 32.1981 29.9931C31.4876 30.0946 30.7772 30.2722 30.0667 30.526C29.3056 30.729 28.519 30.8812 27.7071 30.9827C26.9459 31.0842 26.2101 31.3125 25.4996 31.6677C24.7892 33.0379 24.3325 33.9513 24.1295 34.408C23.9265 34.814 23.6982 35.2961 23.4444 35.8543C22.8355 37.1229 22.2519 38.4169 21.6937 39.7363C21.1355 41.0557 20.6281 42.3751 20.1714 43.6944L16.1371 54.5794C15.9849 54.8331 15.7565 55.4167 15.452 56.3301C15.1475 57.1928 14.8177 58.1823 14.4625 59.2987C14.1073 60.3644 13.7774 61.3539 13.4729 62.2673C13.2192 63.1807 13.067 63.8404 13.0162 64.2464C12.864 65.1598 12.661 66.0479 12.4073 66.9105C12.2043 67.7732 11.976 68.6359 11.7222 69.4986C11.5192 70.209 11.3163 70.9194 11.1133 71.6299C10.961 72.2896 10.8595 73.0254 10.8088 73.8373C10.8088 73.9895 10.7581 74.1418 10.6566 74.294C10.5551 74.497 10.4536 74.7 10.3521 74.903Z" fill="#FF5722"/>
<path d="M24.8342 70.2597C24.6312 69.8538 24.3775 69.5493 24.073 69.3463C23.7685 69.0926 23.6163 68.8642 23.6163 68.6613C23.6163 68.4583 23.5909 68.2553 23.5402 68.0523C23.5402 67.7986 23.4387 67.5702 23.2357 67.3672C22.982 67.0628 23.0074 66.3777 23.3118 65.312C23.6163 64.1956 24.1238 62.8509 24.8342 61.2778C25.5446 59.6539 26.3819 57.9539 27.3461 56.1778C27.7521 55.7719 28.158 55.2391 28.564 54.5794C28.97 53.9197 29.2744 53.4883 29.4774 53.2854C29.4774 53.0824 29.5535 52.9048 29.7058 52.7525C29.858 52.5495 30.0356 52.448 30.2386 52.448V51.9913C30.2386 51.7376 30.467 51.3063 30.9237 50.6973C31.4311 50.0884 32.0401 49.4287 32.7505 48.7183C33.4609 47.9571 34.1968 47.2466 34.9579 46.5869C35.7191 45.8765 36.3534 45.369 36.8609 45.0646C37.9266 44.3541 39.0176 43.9228 40.134 43.7706C41.3011 43.6183 42.2907 43.8721 43.1026 44.5317C43.2548 44.684 43.5086 44.9377 43.8638 45.2929C44.219 45.6481 44.625 46.0541 45.0817 46.5108C45.5891 46.9168 46.0966 47.3481 46.604 47.8048L49.4204 50.3167L48.0503 54.1227C47.3906 56.1525 47.213 57.9286 47.5175 59.4509C47.8727 60.9733 48.3801 62.2927 49.0398 63.4091C49.2936 63.9673 49.801 64.5001 50.5622 65.0076C51.3741 65.515 52.1353 65.8195 52.8457 65.921C53.2517 65.9717 53.6323 66.124 53.9875 66.3777C54.3427 66.6314 54.5204 67.0374 54.5204 67.5956C54.5204 68.1031 54.4189 68.509 54.2159 68.8135C54.0129 69.118 53.6577 69.3209 53.1502 69.4224C51.4756 69.6254 49.9025 69.2195 48.4309 68.2045C47.01 67.1896 45.6906 65.515 44.4727 63.1807C44.2697 62.8763 43.9906 62.3181 43.6354 61.5061C43.331 60.6435 43.1533 60.0853 43.1026 59.8315C42.8996 60.0853 42.519 60.5673 41.9608 61.2778C41.4026 61.9375 40.9713 62.4196 40.6668 62.724C37.0639 66.3777 33.943 68.8389 31.3043 70.1075C28.7162 71.3254 26.5595 71.3761 24.8342 70.2597ZM27.5745 65.9971C27.5745 66.3523 28.1073 66.3523 29.1729 65.9971C30.2893 65.5911 31.4819 64.8807 32.7505 63.8658C34.4759 62.3942 36.2012 60.7703 37.9266 58.9942C39.7026 57.2181 41.1235 55.5689 42.1892 54.0465L43.8638 51.3063C43.3563 50.1391 42.7981 49.3526 42.1892 48.9466C41.631 48.4899 41.1489 48.2615 40.7429 48.2615C40.0832 48.2615 39.0937 48.8705 37.7743 50.0884C36.5057 51.3063 35.1355 52.9301 33.6639 54.96C32.1923 56.9898 30.7968 59.2226 29.4774 61.6584C28.97 62.6733 28.5133 63.6628 28.1073 64.627C27.7521 65.5404 27.5745 65.9971 27.5745 65.9971ZM55.0377 72.6955C54.8347 72.594 54.5556 72.3911 54.2004 72.0866C53.8959 71.7821 53.6168 71.4776 53.3631 71.1732C53.2109 71.0209 53.084 70.8941 52.9825 70.7926C52.881 70.6403 52.7795 70.5388 52.678 70.4881C52.678 70.1329 52.7542 69.8791 52.9064 69.7269C53.1094 69.5747 53.3124 69.3971 53.5153 69.1941C53.7183 68.8896 54.0482 68.7374 54.5049 68.7374C54.9616 68.7374 55.3168 68.6105 55.5705 68.3568C56.484 67.6971 57.4228 67.012 58.3869 66.3016C59.3511 65.5911 60.163 64.7538 60.8227 63.7897C61.5331 62.7748 62.2436 61.6837 62.954 60.5166C63.6645 59.3494 64.3495 58.2077 65.0092 57.0913C65.2122 56.736 65.542 56.1017 65.9988 55.1883C66.4555 54.2749 66.8868 53.3868 67.2928 52.5242C67.7495 51.6107 68.0032 50.9764 68.054 50.6212C67.5972 50.469 67.1659 50.3421 66.7599 50.2406C66.4047 50.0884 66.0495 49.9615 65.6943 49.86C65.2376 49.1496 64.9838 48.7436 64.9331 48.6421C64.8824 48.4899 64.857 48.0078 64.857 47.1959C64.857 46.5869 65.1868 46.2063 65.8465 46.0541C67.3181 45.6989 68.6122 45.4705 69.7286 45.369C70.8957 45.2676 72.0375 45.0646 73.1539 44.7601C73.8643 44.5571 74.727 44.481 75.7419 44.5317C76.7568 44.5825 77.7717 44.8108 78.7866 45.2168C79.2433 45.4198 79.6239 45.6735 79.9284 45.978C80.2329 46.2825 80.512 46.6377 80.7657 47.0436C81.4254 47.9571 81.7553 48.7436 81.7553 49.4033C81.806 50.063 81.7806 50.6973 81.6791 51.3063C81.5776 51.9152 81.6538 52.6003 81.9075 53.3615C81.5523 54.7316 81.1971 55.9495 80.8418 57.0151C80.4866 58.0301 80.1568 58.9942 79.8523 59.9076C79.5478 60.7703 79.2687 61.5823 79.015 62.3434C78.7613 63.1046 78.5583 63.8658 78.406 64.627C78.2031 65.4389 77.9493 66.2508 77.6449 67.0628C77.3404 67.8747 77.112 68.712 76.9598 69.5747C76.8583 70.2344 76.5538 70.7164 76.0464 71.0209C75.5897 71.3254 75.0822 71.6045 74.524 71.8582C74.321 71.909 73.9658 71.8582 73.4584 71.706C73.0016 71.503 72.5703 71.2239 72.1643 70.8687C72.0121 70.3105 71.9614 69.803 72.0121 69.3463C72.0629 68.8896 72.1643 68.4329 72.3166 67.9762C72.4688 67.5702 72.7479 66.6568 73.1539 65.2359C73.5598 63.8151 74.0166 62.2166 74.524 60.4405C75.0315 58.6644 75.5135 57.0152 75.9703 55.4928C76.427 53.9704 76.7314 52.9048 76.8837 52.2958C77.1374 51.4839 77.2135 50.8749 77.112 50.469C77.0613 50.063 76.9852 49.6824 76.8837 49.3272C75.818 48.9212 75.0822 48.7944 74.6762 48.9466C74.321 49.0481 73.8643 49.1496 73.3061 49.2511C73.0524 49.4541 72.8494 49.6824 72.6972 49.9361C72.5449 50.1899 72.4434 50.4436 72.3927 50.6973C71.8345 52.1689 71.3524 53.3361 70.9464 54.1988C70.5912 55.0614 70.236 55.848 69.8808 56.5584C69.5256 57.2181 69.1196 57.9539 68.6629 58.7659C68.2569 59.5778 67.7241 60.6942 67.0644 62.1151C66.6584 63.0285 66.151 63.8658 65.542 64.627C64.9838 65.3882 64.4764 66.2001 64.0197 67.0628L63.1824 68.1284C63.2331 68.1284 63.0301 68.3314 62.5734 68.7374C62.1167 69.1433 61.66 69.5493 61.2033 69.9553C60.7973 70.3612 60.5944 70.5642 60.5944 70.5642L58.2347 72.3911C57.981 72.594 57.5496 72.6955 56.9407 72.6955C56.3317 72.6955 55.6974 72.6955 55.0377 72.6955ZM90.1675 70.7926C89.7616 70.8941 89.2287 70.9448 88.569 70.9448C87.9093 70.8941 87.3258 70.8179 86.8183 70.7164C86.3616 70.5642 86.1332 70.412 86.1332 70.2597C86.1332 70.006 86.0064 69.8791 85.7527 69.8791C85.7527 69.8791 85.6258 69.7777 85.3721 69.5747C85.1691 69.3717 84.8392 69.1687 84.3825 68.9657C83.9258 68.2553 83.6975 67.4941 83.6975 66.6822C83.6975 65.8195 83.9258 64.4747 84.3825 62.6479C84.5348 61.3793 85.0168 59.9076 85.8288 58.233C86.6914 56.5077 87.7317 54.757 88.9496 52.9809C90.1675 51.2048 91.4362 49.6063 92.7555 48.1854C94.1257 46.7645 95.3689 45.7243 96.4853 45.0646C97.1958 44.3541 98.0585 43.9735 99.0734 43.9228C100.088 43.8721 101.052 44.1004 101.966 44.6079C102.473 44.8616 102.981 45.2676 103.488 45.8258C103.996 46.384 104.478 46.9929 104.934 47.6526C105.391 48.3123 105.772 48.972 106.076 49.6317C106.228 50.1899 106.305 50.6973 106.305 51.154C106.355 51.56 106.355 52.0675 106.305 52.6764C106.305 53.2854 106.228 54.1988 106.076 55.4167C105.823 56.3301 105.594 57.4465 105.391 58.7659C105.239 60.0853 105.163 61.227 105.163 62.1912C105.061 63.1554 105.163 63.8404 105.467 64.2464C105.823 64.6524 106.33 64.6777 106.99 64.3225C107.599 64.018 108.182 63.8912 108.74 63.9419C109.299 63.9419 109.73 64.0942 110.034 64.3986C110.39 64.7031 110.567 65.1598 110.567 65.7688C110.567 66.3777 110.263 67.012 109.654 67.6717C109.096 68.2807 108.385 68.8135 107.522 69.2702C106.711 69.6762 105.924 69.8791 105.163 69.8791C104.605 69.8791 104.072 69.5493 103.564 68.8896C103.057 68.1792 102.6 67.3419 102.194 66.3777C101.839 65.3628 101.509 64.3986 101.205 63.4852L100.748 61.7345L97.4749 64.8553C96.8152 65.5658 96.1555 66.2255 95.4958 66.8344C94.8869 67.3926 94.5063 67.7986 94.354 68.0523C94.1003 68.509 93.6182 68.9657 92.9078 69.4224C92.2481 69.8791 91.3347 70.3359 90.1675 70.7926ZM90.3959 66.3016C91.2585 65.7941 92.2481 65.0583 93.3645 64.0942C94.4809 63.0792 95.5719 61.9882 96.6376 60.8211C97.7032 59.6032 98.5913 58.4868 99.3017 57.4719C100.164 56.3047 100.824 55.2137 101.281 54.1988C101.738 53.1839 102.067 52.2197 102.27 51.3063C102.067 50.7481 101.738 50.1645 101.281 49.5556C100.824 48.8959 100.418 48.5406 100.063 48.4899C98.9465 48.4899 97.754 49.2003 96.4853 50.6212C95.2674 51.9913 94.0749 53.4883 92.9078 55.1122C92.7048 55.3659 92.4257 55.7719 92.0705 56.3301C91.7153 56.8883 91.36 57.4211 91.0048 57.9286C90.7003 58.3853 90.4974 58.6898 90.3959 58.842C90.2436 59.045 89.9392 59.6285 89.4825 60.5927C89.0765 61.5061 88.6705 62.4449 88.2646 63.4091C87.8586 64.3225 87.6556 64.9315 87.6556 65.2359C87.6556 65.5404 87.681 65.8702 87.7317 66.2255C87.8332 66.5807 88.0869 66.809 88.4929 66.9105C88.8989 67.012 89.5332 66.809 90.3959 66.3016ZM114.858 70.1836C114.706 69.9806 114.553 69.7269 114.401 69.4224C114.3 69.118 114.249 68.8642 114.249 68.6613C114.249 68.5598 114.223 68.4329 114.173 68.2807C114.173 68.1284 114.071 68.0523 113.868 68.0523C113.716 67.9001 113.818 67.3165 114.173 66.3016C114.579 65.2359 115.086 64.018 115.695 62.6479C116.355 61.2778 117.014 59.9584 117.674 58.6898C118.385 57.3704 118.968 56.3301 119.425 55.5689C119.679 55.4167 119.831 55.2137 119.882 54.96C119.983 54.6555 119.983 54.5032 119.882 54.5032C119.882 54.5032 120.008 54.2749 120.262 53.8182C120.567 53.3107 120.795 52.9809 120.947 52.8286C121.353 52.1182 121.658 51.4078 121.861 50.6973C122.064 49.9361 122.114 49.3018 122.013 48.7944C121.81 48.5406 121.582 48.4645 121.328 48.566C121.074 48.6675 120.947 48.7183 120.947 48.7183C120.744 48.769 120.44 48.8705 120.034 49.0227C119.679 49.1242 119.349 49.2765 119.044 49.4794C117.877 50.2914 117.091 50.672 116.685 50.6212C116.279 50.5197 115.822 49.86 115.315 48.6421C115.112 48.0839 115.035 47.678 115.086 47.4242C115.137 47.1705 115.34 46.8914 115.695 46.5869C116.101 46.2317 116.482 46.0034 116.837 45.9019C117.192 45.7496 117.471 45.5974 117.674 45.4452C118.232 45.0899 118.689 44.8362 119.044 44.684C119.45 44.5317 119.755 44.4303 119.958 44.3795C121.277 43.9735 122.394 43.8974 123.307 44.1512C124.22 44.4049 124.905 45.0646 125.362 46.1302C126.073 46.9929 126.428 47.9824 126.428 49.0988C126.428 50.1645 126.073 51.4078 125.362 52.8286L124.601 53.9704C124.347 54.4779 124.296 54.7316 124.449 54.7316C124.652 54.7316 124.88 54.554 125.134 54.1988C125.286 53.9958 125.59 53.6913 126.047 53.2854C126.504 52.8794 126.808 52.6764 126.961 52.6764C126.961 52.6764 127.011 52.651 127.113 52.6003C127.265 52.5495 127.341 52.3466 127.341 51.9913C127.493 51.8391 127.646 51.6869 127.798 51.5346C128.001 51.3824 128.102 51.3063 128.102 51.3063C128.305 51.3063 128.686 51.0779 129.244 50.6212C129.853 50.1138 130.564 49.5302 131.375 48.8705C131.934 48.4645 132.441 48.2615 132.898 48.2615C134.065 47.9063 135.004 48.2869 135.714 49.4033C136.475 50.5197 136.856 51.966 136.856 53.7421L135.258 57.8525L137.998 54.5032C138.302 54.0973 138.607 53.7421 138.911 53.4376C139.266 53.1331 139.571 52.8794 139.825 52.6764C139.926 52.3212 140.078 52.1182 140.281 52.0675C140.484 52.0167 140.586 51.9913 140.586 51.9913C140.586 51.9913 140.637 51.9913 140.738 51.9913C140.84 51.9406 140.89 51.8391 140.89 51.6869C141.144 51.4839 141.423 51.3063 141.728 51.154C142.032 50.9511 142.235 50.7481 142.337 50.5451C143.199 50.1899 143.986 50.1391 144.696 50.3929C145.407 50.5958 146.016 51.2302 146.523 52.2958C146.878 52.9048 147.081 53.4376 147.132 53.8943C147.183 54.351 147.208 55.0361 147.208 55.9495C147.107 56.7107 147.005 57.3196 146.904 57.7763C146.853 58.1823 146.802 58.6136 146.751 59.0703C146.701 59.5271 146.625 60.1614 146.523 60.9733C146.32 61.3793 146.193 61.8106 146.142 62.2673C146.142 62.724 146.142 63.1554 146.142 63.5613C146.142 64.221 146.168 64.6777 146.219 64.9315C146.269 65.1344 146.472 65.2359 146.828 65.2359C147.538 65.0837 148.502 64.7285 149.72 64.1703C150.989 63.5613 151.927 62.9778 152.536 62.4196C153.298 61.7091 153.957 61.3539 154.515 61.3539C155.124 61.3031 155.505 61.5822 155.657 62.1912C155.759 62.3942 155.581 62.8509 155.124 63.5613C154.718 64.2718 154.236 64.9568 153.678 65.6165C153.171 66.2762 152.79 66.6061 152.536 66.6061C152.384 66.6061 152.207 66.7583 152.004 67.0628C151.801 67.3165 151.572 67.5195 151.318 67.6717C150.963 68.0269 150.608 68.3568 150.253 68.6613C149.948 68.9657 149.593 69.118 149.187 69.118C148.984 69.118 148.73 69.1941 148.426 69.3463C148.172 69.4478 147.868 69.4986 147.513 69.4986C147.005 69.6508 146.219 69.5747 145.153 69.2702C144.138 68.9657 143.478 68.2553 143.174 67.1389C142.971 66.5807 142.793 65.6926 142.641 64.4747C142.489 63.2061 142.514 61.9375 142.717 60.6688C142.92 59.7554 143.047 58.9181 143.098 58.1569C143.148 57.3957 143.25 56.8629 143.402 56.5584C143.402 56.4062 143.402 56.051 143.402 55.4928C143.402 54.8838 143.326 54.5794 143.174 54.5794C142.971 54.5794 142.489 54.96 141.728 55.7211C141.017 56.4316 140.154 57.345 139.14 58.4614C138.175 59.5778 137.211 60.7449 136.247 61.9628C135.283 63.1807 134.496 64.2718 133.887 65.2359C133.431 65.7941 133.025 66.4792 132.669 67.2911C132.314 68.1031 132.061 68.5598 131.908 68.6613C131.553 69.0672 131.122 69.118 130.614 68.8135C130.158 68.509 129.726 68.0269 129.32 67.3672C129.168 67.0628 129.067 66.809 129.016 66.6061C128.965 66.3523 128.965 66.0225 129.016 65.6165C129.117 65.1598 129.295 64.5001 129.549 63.6374C129.853 62.7748 130.259 61.5569 130.767 59.9838C131.325 58.2584 131.807 56.7107 132.213 55.3405C132.669 53.9197 132.898 53.2092 132.898 53.2092C132.898 53.0063 132.517 53.2092 131.756 53.8182C130.995 54.3764 130.107 55.0868 129.092 55.9495C128.635 56.5077 127.874 57.345 126.808 58.4614C125.743 59.5778 124.576 60.8464 123.307 62.2673C122.038 63.6882 120.82 65.1852 119.653 66.7583C118.182 68.8389 117.141 70.1075 116.532 70.5642C115.974 71.0209 115.416 70.8941 114.858 70.1836ZM163.14 90.5072C163.089 90.6087 162.861 90.5072 162.455 90.2027C162.1 89.8983 161.745 89.5177 161.389 89.061C161.034 88.655 160.882 88.2998 160.933 87.9953C160.73 87.2849 160.755 86.3968 161.009 85.3312C161.313 84.3163 161.948 82.7939 162.912 80.7641C163.419 79.9521 163.876 78.988 164.282 77.8716C164.739 76.7552 165.246 75.6388 165.804 74.5224C166.058 74.0657 166.616 73.0761 167.479 71.5538C168.341 70.0314 169.255 68.306 170.219 66.3777C171.234 64.4494 172.071 62.6225 172.731 60.8972C171.412 62.2673 170.194 63.6628 169.077 65.0837C167.961 66.4538 166.921 67.5702 165.956 68.4329C165.043 69.2956 164.18 69.7015 163.368 69.6508C162.709 69.4986 161.998 69.2702 161.237 68.9657C160.527 68.6105 160.045 68.0016 159.791 67.1389C159.588 66.0225 159.512 64.6016 159.562 62.8763C159.664 61.1509 159.994 58.5375 160.552 55.0361C160.958 53.3107 161.186 51.9913 161.237 51.0779C161.339 50.1138 161.313 49.4033 161.161 48.9466C161.009 48.4899 160.73 48.0839 160.324 47.7287C159.664 47.1198 159.309 46.5869 159.258 46.1302C159.258 45.6228 159.613 45.1914 160.324 44.8362C161.389 44.5825 162.15 44.5064 162.607 44.6079C163.064 44.6586 163.622 45.0646 164.282 45.8258C164.688 46.4854 165.043 47.1198 165.347 47.7287C165.703 48.2869 165.88 49.2765 165.88 50.6973C165.88 51.3063 165.779 52.1182 165.576 53.1331C165.424 54.148 165.271 55.1122 165.119 56.0256C165.018 56.8883 164.941 57.4972 164.891 57.8525C164.383 59.73 164.053 61.3539 163.901 62.724C163.8 64.0942 163.876 64.7792 164.13 64.7792C165.144 63.9673 166.109 63.0539 167.022 62.039C167.986 60.9733 168.976 59.7808 169.991 58.4614C171.056 57.0913 172.223 55.5435 173.492 53.8182C173.949 52.9555 174.406 52.1182 174.862 51.3063C175.319 50.4943 175.7 49.657 176.004 48.7944C176.308 48.1347 176.613 47.6018 176.917 47.1959C177.222 46.7899 177.476 46.5616 177.679 46.5108C177.932 46.4093 178.237 46.4347 178.592 46.5869C178.998 46.7392 179.353 46.9168 179.658 47.1198C180.013 47.272 180.191 47.3989 180.191 47.5004C180.241 47.5511 180.368 47.6018 180.571 47.6526C180.774 47.7033 180.977 47.7541 181.18 47.8048C181.434 47.8048 181.561 47.8809 181.561 48.0332C181.561 48.1347 181.434 48.4645 181.18 49.0227C180.977 49.5809 180.723 50.2152 180.419 50.9257C180.165 51.5854 179.937 52.1943 179.734 52.7525C179.531 53.26 179.455 53.5645 179.505 53.6659C179.607 53.7674 179.531 54.148 179.277 54.8077C179.023 55.4167 178.719 56.1017 178.364 56.8629C178.059 57.6241 177.78 58.3092 177.526 58.9181C177.019 60.5927 176.435 62.2673 175.776 63.9419C175.116 65.5658 174.329 67.1896 173.416 68.8135C173.112 69.4224 172.655 70.3612 172.046 71.6299C171.488 72.8985 170.929 74.1418 170.371 75.3597C169.864 76.6283 169.458 77.5925 169.153 78.2522C168.95 78.6581 168.646 79.2924 168.24 80.1551C167.885 81.0685 167.479 82.0581 167.022 83.1237C166.616 84.1894 166.21 85.1789 165.804 86.0924C165.398 87.0565 165.094 87.7923 164.891 88.2998C164.789 89.264 164.561 89.9744 164.206 90.4311C164.003 90.4311 163.774 90.4311 163.521 90.4311C163.267 90.4818 163.14 90.5072 163.14 90.5072ZM176.578 89.9744C176.223 89.8222 175.843 89.5684 175.437 89.2132C175.031 88.858 174.701 88.452 174.447 87.9953C174.193 87.5893 174.067 87.2341 174.067 86.9297C174.067 86.6252 174.193 85.8133 174.447 84.4939C174.701 83.2252 175.031 81.6521 175.437 79.7745C175.893 77.9477 176.375 76.0701 176.883 74.1418C177.441 72.2642 177.999 70.5896 178.558 69.118C178.659 68.8642 178.989 68.0269 179.547 66.6061C180.156 65.1344 180.74 63.3583 181.298 61.2778C181.704 59.9584 182.237 58.4614 182.896 56.7868C183.556 55.1122 184.241 53.4376 184.951 51.763C185.662 50.0376 186.245 48.5153 186.702 47.1959C187.159 45.8765 187.54 44.8108 187.844 43.9989C188.199 43.1362 188.402 42.6034 188.453 42.4004C188.554 42.096 188.707 41.8422 188.91 41.6392C189.163 41.3855 189.417 41.1825 189.671 41.0303C189.925 40.8273 190.128 40.7005 190.28 40.6497C191.193 40.396 191.98 40.7766 192.639 41.7915C192.893 42.2482 192.944 42.781 192.792 43.39C192.639 43.9989 192.36 44.7601 191.954 45.6735L191.422 47.1959L194.162 46.5869C194.619 46.5869 195.177 46.6123 195.836 46.6631C196.547 46.6631 197.232 46.6631 197.892 46.6631C198.551 46.6631 199.033 46.7138 199.338 46.8153C200.556 46.866 201.393 47.0944 201.85 47.5004C202.357 47.9063 202.789 48.4392 203.144 49.0988C203.397 49.3526 203.702 49.7078 204.057 50.1645C204.412 50.5705 204.615 50.9764 204.666 51.3824C204.869 52.2451 204.869 53.1839 204.666 54.1988C204.514 55.1629 204.209 56.1271 203.753 57.0913C203.347 58.0554 202.789 58.9435 202.078 59.7554C201.418 60.5166 200.708 61.1509 199.947 61.6584C199.439 61.8614 198.983 62.0897 198.577 62.3434C198.171 62.5464 197.968 62.6479 197.968 62.6479C197.917 62.9016 197.359 63.3076 196.293 63.8658C195.227 64.3733 194.01 64.8553 192.639 65.312C191.269 65.7688 190.077 66.0732 189.062 66.2255C188.707 66.2762 188.199 66.327 187.54 66.3777C186.88 66.4285 186.372 66.3523 186.017 66.1493C185.459 66.0479 185.078 65.9971 184.875 65.9971C184.672 65.9971 184.571 66.0986 184.571 66.3016C184.52 66.4031 184.165 67.4687 183.505 69.4986C182.846 71.5284 182.16 73.888 181.45 76.5776C180.486 79.5208 179.699 81.8551 179.09 83.5804C178.481 85.3565 177.999 86.6759 177.644 87.5386C177.34 88.4013 177.111 88.9849 176.959 89.2893C176.807 89.6445 176.68 89.8729 176.578 89.9744ZM186.093 61.8867C186.245 62.1912 186.728 62.2927 187.54 62.1912C188.402 62.039 189.417 61.7345 190.584 61.2778C191.802 60.7703 192.995 60.2121 194.162 59.6032C195.329 58.9435 196.293 58.2838 197.054 57.6241C198.171 56.3555 199.084 55.1883 199.795 54.1227C200.505 53.0063 200.606 52.2704 200.099 51.9152C199.541 51.1033 198.501 50.7227 196.978 50.7734C195.456 50.8242 193.578 51.4585 191.345 52.6764C190.483 52.9809 189.823 53.3868 189.366 53.8943C188.96 54.351 188.605 54.9346 188.301 55.645C187.996 56.3555 187.616 57.2181 187.159 58.233C186.702 59.3494 186.398 60.1867 186.245 60.7449C186.093 61.3031 186.043 61.6837 186.093 61.8867Z" fill="#1E1E1E"/>
</svg>
